<svg width="28" height="30" viewBox="0 0 28 30" fill="none" xmlns="http://www.w3.org/2000/svg">
<path d="M25.6725 17.6554L27.9705 5.46791C28.1364 4.58795 27.5815 3.75 26.8329 3.75H7.73928L7.29371 1.12441C7.18268 0.469981 6.70493 0 6.15072 0H1.16667C0.522327 0 0 0.62959 0 1.40625V2.34375C0 3.12041 0.522327 3.75 1.16667 3.75H4.56376L7.97859 23.8731C7.16163 24.4395 6.61111 25.5013 6.61111 26.7188C6.61111 28.5309 7.82989 30 9.33334 30C10.8368 30 12.0556 28.5309 12.0556 26.7188C12.0556 25.8004 11.7422 24.9706 11.2377 24.375H21.4289C20.9245 24.9706 20.6111 25.8004 20.6111 26.7188C20.6111 28.5309 21.8299 30 23.3333 30C24.8368 30 26.0556 28.5309 26.0556 26.7188C26.0556 25.4196 25.4291 24.297 24.5205 23.7653L24.7887 22.3429C24.9546 21.4629 24.3997 20.625 23.651 20.625H10.6029L10.2848 18.75H24.5349C25.0796 18.75 25.5518 18.2957 25.6725 17.6554Z" fill="#F3F3F3"/>
</svg>
