<svg width="24" height="31" viewBox="0 0 24 31" fill="none" xmlns="http://www.w3.org/2000/svg">
<path d="M11.9353 15.3409C15.7024 15.3409 18.7555 11.9072 18.7555 7.67045C18.7555 3.43373 15.7024 0 11.9353 0C8.16823 0 5.11513 3.43373 5.11513 7.67045C5.11513 11.9072 8.16823 15.3409 11.9353 15.3409ZM16.7094 17.2585H15.8196C14.6367 17.8698 13.3207 18.2173 11.9353 18.2173C10.55 18.2173 9.23921 17.8698 8.051 17.2585H7.16118C3.20761 17.2585 0 20.866 0 25.3125V27.8054C0 29.3934 1.14558 30.6818 2.55757 30.6818H21.313C22.725 30.6818 23.8706 29.3934 23.8706 27.8054V25.3125C23.8706 20.866 20.663 17.2585 16.7094 17.2585Z" fill="#F3F3F3"/>
</svg>
