<svg width="22" height="25" viewBox="0 0 22 25" fill="none" xmlns="http://www.w3.org/2000/svg">
                                <path d="M15.8536 4.72414H5.91699V1.72414C5.91699 1.31034 6.22431 1 6.63407 1H15.1365C15.5463 1 15.8536 1.31034 15.8536 1.72414V4.72414V4.72414Z" stroke="white" stroke-width="1.2" stroke-miterlimit="10" stroke-linejoin="round"></path>
                                <path d="M4.4834 21.4824V23.7583H17.2883V21.4824H4.4834Z" stroke="white" stroke-width="1.2" stroke-miterlimit="10" stroke-linecap="round" stroke-linejoin="round"></path>
                                <path d="M7.86423 12.9996C8.47887 12.9996 8.88862 12.5858 8.88862 11.9651C8.88862 11.3445 8.37643 10.9307 7.86423 10.9307C7.35204 10.9307 6.83984 11.3445 6.83984 11.9651C6.83984 12.5858 7.2496 12.9996 7.86423 12.9996Z" fill="black" stroke="black" stroke-width="0.2" stroke-miterlimit="10"></path>
                                <path d="M14.0097 12.9996C14.6244 12.9996 15.0341 12.5858 15.0341 11.9651C15.0341 11.3445 14.5219 10.9307 14.0097 10.9307C13.3951 10.9307 12.9854 11.3445 12.9854 11.9651C12.9854 12.5858 13.4975 12.9996 14.0097 12.9996Z" fill="black" stroke="black" stroke-width="0.2" stroke-miterlimit="10"></path>
                                <path d="M7.86426 16C7.86426 16 8.99109 17.3448 10.9374 17.3448C12.8838 17.3448 14.113 16 14.113 16" stroke="black" stroke-width="1.2" stroke-miterlimit="10" stroke-linecap="round" stroke-linejoin="round"></path>
                                <path d="M17.4927 4.72363H4.27805C2.43415 4.72363 1 6.17191 1 8.03398V18.1719C1 20.034 2.43415 21.4823 4.27805 21.4823H17.4927C19.3366 21.4823 20.7707 20.034 20.7707 18.1719V8.03398C20.7707 6.17191 19.3366 4.72363 17.4927 4.72363Z" stroke="white" stroke-width="1.2" stroke-miterlimit="10" stroke-linecap="round" stroke-linejoin="round"></path>
                            </svg>