<svg width="15" height="15" viewBox="0 0 15 15" fill="none" xmlns="http://www.w3.org/2000/svg">
<path d="M7.5 0C5.68776 0 4.21875 1.65264 4.21875 3.69141C4.21875 5.33965 6.36328 8.34375 7.1849 9.43418C7.3513 9.65508 7.64896 9.65508 7.8151 9.43418C8.63672 8.34375 10.7812 5.33965 10.7812 3.69141C10.7812 1.65264 9.31224 0 7.5 0ZM7.5 4.92188C6.89583 4.92188 6.40625 4.37109 6.40625 3.69141C6.40625 3.01172 6.89583 2.46094 7.5 2.46094C8.10417 2.46094 8.59375 3.01172 8.59375 3.69141C8.59375 4.37109 8.10417 4.92188 7.5 4.92188ZM0.523958 6.32666C0.369317 6.39624 0.236753 6.51635 0.143362 6.67149C0.049971 6.82664 3.70367e-05 7.0097 0 7.19707L0 14.5307C0 14.8623 0.297656 15.0891 0.571354 14.966L4.16667 13.125V6.29648C3.93646 5.82832 3.74818 5.37246 3.61328 4.93652L0.523958 6.32666ZM7.5 10.5372C7.13359 10.5372 6.78698 10.3562 6.54922 10.0403C6.03724 9.36064 5.49271 8.58662 5 7.79268V13.1247L10 14.9997V7.79297C9.50729 8.58662 8.96302 9.36094 8.45078 10.0406C8.21302 10.3562 7.86641 10.5372 7.5 10.5372ZM14.4286 4.72148L10.8333 6.5625V15L14.476 13.3608C14.6307 13.2913 14.7633 13.1712 14.8567 13.016C14.9501 12.8609 15 12.6778 15 12.4904V5.15684C15 4.8252 14.7023 4.59844 14.4286 4.72148Z" fill="black"/>
</svg>
