<svg width="173" height="60" viewBox="0 0 173 60" fill="none" xmlns="http://www.w3.org/2000/svg">
<path d="M21.7241 37.2414H38.2759V26.8965H21.7241V37.2414Z" fill="#00AA33"/>
<path d="M21.7241 47.5862H38.2759V37.2414H21.7241V47.5862Z" fill="#FF2F2F"/>
<path d="M21.7241 57.9311H38.2759V47.5862H21.7241V57.9311Z" fill="#6087FF"/>
<path d="M23.793 16.5517H27.9311V12.4138H23.793V16.5517Z" fill="#F3D55B"/>
<path d="M32.0689 16.5517H36.2069V12.4138H32.0689V16.5517Z" fill="#F3D55B"/>
<path d="M38.2759 26.8963H21.7241V18.6204C21.7241 17.4774 22.65 16.5515 23.7931 16.5515H36.2068C37.3499 16.5515 38.2758 17.4774 38.2758 18.6204V26.8963H38.2759Z" fill="#F0C419"/>
<path d="M0 47.5862H16.5517V37.2414H0V47.5862Z" fill="#6087FF"/>
<path d="M0 57.9311H16.5517V47.5862H0V57.9311Z" fill="#FF2F2F"/>
<path d="M2.06894 26.8966H6.20695V22.7587H2.06894V26.8966Z" fill="#F49853"/>
<path d="M10.3448 26.8966H14.4827V22.7587H10.3448V26.8966Z" fill="#F49853"/>
<path d="M16.5517 37.241H0V28.9652C0 27.8221 0.925899 26.8963 2.06895 26.8963H14.4827C15.6258 26.8963 16.5517 27.8222 16.5517 28.9652V37.241Z" fill="#FF9233"/>
<path d="M43.4483 26.8965H60V16.5517H43.4483V26.8965Z" fill="#F0C419"/>
<path d="M43.4483 37.2414H60V26.8965H43.4483V37.2414Z" fill="#FF9233"/>
<path d="M43.4483 47.5862H60V37.2414H43.4483V47.5862Z" fill="#00AA33"/>
<path d="M43.4483 57.9311H60V47.5862H43.4483V57.9311Z" fill="#FF2F2F"/>
<path d="M45.5173 6.20698H49.6552V2.06897H45.5173V6.20698Z" fill="#6F95FF"/>
<path d="M53.7931 6.20698H57.9311V2.06897H53.7931V6.20698Z" fill="#6F95FF"/>
<path d="M60 16.5514H43.4483V8.27555C43.4483 7.1325 44.3742 6.2066 45.5173 6.2066H57.9311C59.0741 6.2066 60 7.1325 60 8.27555V16.5514Z" fill="#6087FF"/>
<path d="M109.448 26.8965H126V16.5517H109.448V26.8965Z" fill="#F0C419"/>
<path d="M109.448 37.2414H126V26.8965H109.448V37.2414Z" fill="#FF9233"/>
<path d="M109.448 47.5862H126V37.2414H109.448V47.5862Z" fill="#00AA33"/>
<path d="M109.448 57.9311H126V47.5862H109.448V57.9311Z" fill="#FF2F2F"/>
<path d="M111.517 6.20698H115.655V2.06897H111.517V6.20698Z" fill="#6F95FF"/>
<path d="M119.793 6.20698H123.931V2.06897H119.793V6.20698Z" fill="#6F95FF"/>
<path d="M126 16.5514H109.448V8.27555C109.448 7.1325 110.374 6.2066 111.517 6.2066H123.931C125.074 6.2066 126 7.1325 126 8.27555V16.5514Z" fill="#6087FF"/>
<path d="M70.1379 26.8966H74.2759V22.7587H70.1379V26.8966Z" fill="#73E869"/>
<path d="M78.4138 26.8966H82.5517V22.7587H78.4138V26.8966Z" fill="#73E869"/>
<path d="M86.6897 26.8966H90.8276V22.7587H86.6897V26.8966Z" fill="#73E869"/>
<path d="M94.9655 26.8966H99.1035V22.7587H94.9655V26.8966Z" fill="#73E869"/>
<path d="M66 57.9311H103.241V47.5862H66V57.9311Z" fill="#6087FF"/>
<path d="M66 47.5862H103.241V37.2414H66V47.5862Z" fill="#F0C419"/>
<path d="M103.241 37.241H66V28.9652C66 27.8221 66.9259 26.8963 68.0689 26.8963H101.172C102.315 26.8963 103.241 27.8222 103.241 28.9652V37.241Z" fill="#00AA33"/>
<path d="M133 37.069H149.552V26.7242H133V37.069Z" fill="#00AA33"/>
<path d="M133 47.4139H149.552V37.069H133V47.4139Z" fill="#FF2F2F"/>
<path d="M133 57.7588H149.552V47.4139H133V57.7588Z" fill="#6087FF"/>
<path d="M135.069 16.3793H139.207V12.2412H135.069V16.3793Z" fill="#F3D55B"/>
<path d="M143.345 16.3793H147.483V12.2412H143.345V16.3793Z" fill="#F3D55B"/>
<path d="M149.552 26.7238H133V18.4479C133 17.3048 133.926 16.3789 135.069 16.3789H147.483C148.626 16.3789 149.552 17.3048 149.552 18.4479V26.7238Z" fill="#F0C419"/>
<path d="M156 48.8276H172.552V38.4827H156V48.8276Z" fill="#6087FF"/>
<path d="M156 59.1724H172.552V48.8276H156V59.1724Z" fill="#FF2F2F"/>
<path d="M158.069 28.1379H162.207V24H158.069V28.1379Z" fill="#F49853"/>
<path d="M166.345 28.1379H170.483V24H166.345V28.1379Z" fill="#F49853"/>
<path d="M172.552 38.4824H156V30.2066C156 29.0634 156.926 28.1376 158.069 28.1376H170.483C171.626 28.1376 172.552 29.0635 172.552 30.2066V38.4824Z" fill="#FF9233"/>
</svg>
