<svg width="15" height="15" viewBox="0 0 15 15" fill="none" xmlns="http://www.w3.org/2000/svg">
<g clip-path="url(#clip0_453_81)">
<path d="M15.6977 11.4941L10.8243 14.7754C10.3797 15.0746 9.62077 15.0751 9.17555 14.7754L4.30172 11.4941C3.63582 11.0458 4.14347 10.3125 5.12611 10.3125H8.12494V2.34375H4.18857C4.1147 2.34375 4.04155 2.33466 3.97331 2.31699C3.90506 2.29932 3.84306 2.27342 3.79083 2.24077L1.16583 0.600147C0.811458 0.378691 1.06243 0 1.56357 0H10.7499C11.3713 0 11.8749 0.314795 11.8749 0.703125V10.3125H14.8733C15.852 10.3125 16.3664 11.044 15.6977 11.4941Z" fill="#D52A38"/>
</g>
<defs>
<clipPath id="clip0_453_81">
<rect width="15" height="15" fill="white"/>
</clipPath>
</defs>
</svg>
