<svg width="27" height="27" viewBox="0 0 27 27" fill="none" xmlns="http://www.w3.org/2000/svg">
<path d="M26.6328 23.3432L21.3748 18.0861C21.1375 17.8488 20.8158 17.717 20.4783 17.717H19.6186C21.0742 15.8556 21.9391 13.5144 21.9391 10.9676C21.9391 4.90903 17.0292 -6.10352e-05 10.9696 -6.10352e-05C4.90993 -6.10352e-05 0 4.90903 0 10.9676C0 17.0262 4.90993 21.9353 10.9696 21.9353C13.5168 21.9353 15.8584 21.0705 17.72 19.6152V20.4747C17.72 20.8122 17.8519 21.1338 18.0892 21.3711L23.3472 26.6282C23.843 27.1239 24.6446 27.1239 25.135 26.6282L26.6275 25.136C27.1233 24.6403 27.1233 23.8388 26.6328 23.3432ZM10.9696 17.717C7.24096 17.717 4.21906 14.7008 4.21906 10.9676C4.21906 7.23966 7.23568 4.21828 10.9696 4.21828C14.6981 4.21828 17.72 7.23439 17.72 10.9676C17.72 14.6956 14.7034 17.717 10.9696 17.717Z" fill="#F3F3F3"/>
</svg>
